<?xml version="1.0" encoding="UTF-8" standalone="no"?><!DOCTYPE svg PUBLIC "-//W3C//DTD SVG 1.1//EN"
        "http://www.w3.org/Graphics/SVG/1.1/DTD/svg11.dtd">
<svg width="100%" height="100%" viewBox="0 0 353 353" version="1.1" xmlns="http://www.w3.org/2000/svg"
     xmlns:xlink="http://www.w3.org/1999/xlink" xml:space="preserve" xmlns:serif="http://www.serif.com/"
     style="fill-rule:evenodd;clip-rule:evenodd;stroke-linejoin:round;stroke-miterlimit:2;">
    <style>
        path {
            fill: #000;
        }
        @media (prefers-color-scheme: dark) {
            path {
                fill: #fff;
            }
        }
    </style>
    <path d="M263.195,352.205l5.926,-34.089l18.628,0.088c13.01,0 23.714,-3.799 32.111,-11.398c8.397,-7.599 13.187,-17.726 14.37,-30.381c1.005,-12.182 -1.7,-22.132 -8.116,-29.849c-6.417,-7.718 -15.272,-11.754 -26.567,-12.108l-41.425,-0.089l-20.393,117.826l-39.6,0c0.432,-0.427 0.858,-0.865 1.28,-1.313c9.313,-9.906 15.301,-23.729 17.962,-41.469l2.927,-19.781c0.651,-4.436 0.917,-9.137 0.799,-14.104c-0.473,-13.188 -3.977,-23.581 -10.512,-31.18c-6.534,-7.599 -15.538,-11.517 -27.01,-11.753c-9.284,-0.178 -17.623,1.892 -25.015,6.209c-7.392,4.317 -13.571,10.911 -18.539,19.781c-4.967,8.871 -8.308,19.042 -10.023,30.514l-3.282,21.467c-0.592,4.553 -0.769,9.048 -0.533,13.483c0.541,11.728 3.613,21.11 9.217,28.146l-45.978,0c5.705,-6.233 8.929,-14.048 9.671,-23.445c0.769,-9.757 -1.39,-18.036 -6.475,-24.837c-4.554,-6.15 -12.064,-11.679 -22.531,-16.588c-10.467,-4.908 -15.257,-10.822 -14.37,-17.741c0.65,-4.612 2.528,-8.382 5.632,-11.309c3.105,-2.928 6.816,-4.332 11.133,-4.214c8.397,0.178 12.271,6.328 11.62,18.451l25.369,0.088c0.474,-11.59 -2.409,-21.096 -8.648,-28.518c-6.239,-7.422 -14.888,-11.251 -25.946,-11.487c-7.629,-0.178 -14.784,1.301 -21.467,4.435c-6.682,3.134 -12.019,7.525 -16.011,13.173c-3.991,5.647 -6.253,12.078 -6.785,19.293c-0.888,12.537 4.08,22.915 14.902,31.135c3.962,3.016 8.885,5.928 14.769,8.737c5.884,2.809 9.757,5.677 11.62,8.605c1.863,2.927 2.499,6.578 1.907,10.954c-0.65,4.436 -2.306,8.058 -4.967,10.867c-2.661,2.809 -6.298,4.243 -10.911,4.302c-5.263,-0 -9.121,-1.641 -11.576,-4.923c-2.454,-3.282 -3.444,-8.738 -2.971,-16.366l-25.547,-0.089c-0.568,11.872 2.356,21.697 8.772,29.477l-26.612,0l0,-352.205l352.205,-0l0,352.205l-89.01,0Zm-68.355,-63.451l-3.104,21.91c-1.715,11.828 -4.731,20.343 -9.048,25.547c-4.317,5.204 -9.846,7.688 -16.588,7.451c-9.462,-0.414 -14.34,-6.83 -14.636,-19.248c-0.177,-3.312 0.089,-7.895 0.798,-13.75l3.105,-21.732c1.715,-12.064 4.746,-20.919 9.092,-26.567c4.347,-5.647 10.068,-8.323 17.164,-8.028c9.226,0.355 13.986,7.126 14.282,20.314c-0,3.311 -0.355,8.012 -1.065,14.103Zm78.007,7.629l7.007,-40.272l18.539,0.178c3.253,0.236 5.796,1.567 7.629,3.991c1.833,2.425 2.809,5.678 2.927,9.758c0.178,8.042 -1.478,14.444 -4.967,19.204c-3.489,4.761 -8.397,7.2 -14.725,7.318l-16.41,-0.177Z"/>
 </svg>