<svg id="svg2" xmlns:rdf="http://www.w3.org/1999/02/22-rdf-syntax-ns#" xmlns="http://www.w3.org/2000/svg" height="37.626mm" width="67.9mm" version="1.1" xmlns:cc="http://creativecommons.org/ns#" xmlns:dc="http://purl.org/dc/elements/1.1/" viewBox="0 0 240.59157 133.32173">
	<g id="layer1" transform="translate(-10.905 -870.1)">
		<flowRoot id="flowRoot4203" style="word-spacing:0px;letter-spacing:0px" xml:space="preserve" font-size="40px" transform="translate(0 868.11)" font-stretch="condensed" line-height="125%" font-family="&apos;Bernard MT Condensed&apos;" fill="#000000"><flowRegion id="flowRegion4205"><rect id="rect4207" height="52" width="161" y="58.002" x="91.5"/></flowRegion><flowPara id="flowPara4209" font-family="Arial" font-stretch="condensed"/></flowRoot>
	</g>
	<g id="layer2" transform="translate(-10.905 -1.9931)">
		<g fill-rule="evenodd">
			<path id="rect3344" d="m19.39 14.053h7.5v110h-7.5z" fill="#810285"/>
			<path id="rect3344-4" d="m34.289 14.06h7.5v110h-7.5z" fill="#b8114f"/>
			<path id="rect4193" d="m49.274 14.054h7.5v110h-7.5z" fill="#f04e27"/>
			<path id="rect4197" d="m64.263 14.053h7.5v110h-7.5z" fill="#ff0"/>
		</g>
		<g>
			<g id="text4232" transform="scale(.94920 1.0535)">
				<path id="path3434" d="m87.265 34.585v-18.733h-5.7372v-2.5064h13.807v2.5064h-5.7662v18.733h-2.3036z"/>
				<path id="path3436" d="m98.383 34.585v-21.239h2.1297v7.6207q0.75338-1.0576 1.6951-1.5792 0.9562-0.53606 2.1008-0.53606 2.0138 0 3.1729 1.2894 1.1735 1.2749 1.1735 4.6941v9.7504h-2.1297v-9.7504q0-1.9993-0.70991-2.8686-0.70991-0.86928-1.9559-0.86928-1.3908 0-2.376 1.1156-0.9707 1.1156-0.9707 3.9552v8.4175h-2.1297z"/>
				<path id="path3438" d="m121.58 29.63 2.2022 0.33322q-0.55054 2.463-1.9993 3.7234-1.4343 1.246-3.564 1.246-2.6803 0-4.3464-2.0283-1.6516-2.0428-1.6516-5.8821 0-3.9842 1.6661-6.0705 1.6806-2.1008 4.245-2.1008 2.4485 0 4.0856 2.0573t1.6371 5.9546l-0.0145 0.69542h-9.4172q0.13039 2.5933 1.2025 3.9118 1.0721 1.3184 2.6078 1.3184 2.405 0 3.3467-3.1584zm-7.0267-4.216h7.0412q-0.14488-1.9993-0.85479-2.9845-1.0286-1.4343-2.6223-1.4343-1.4343 0-2.4485 1.2025-1.0142 1.188-1.1156 3.2163z"/>
				<path id="path3440" d="m127.51 34.585v-15.386h1.9269v2.3326q0.73888-1.6227 1.3474-2.1442 0.62298-0.53606 1.3908-0.53606 1.0721 0 2.1877 0.8403l-0.7244 2.4195q-0.79684-0.56503-1.5502-0.56503-0.68094 0-1.246 0.4781-0.56503 0.4781-0.79684 1.3329-0.40566 1.4923-0.40566 3.1729v8.0553h-2.1297z"/>
				<path id="path3442" d="m136.66 34.585v-15.386h1.9124v2.1587q0.63747-1.2025 1.6371-1.8545 0.99967-0.65196 2.1877-0.65196 1.3329 0 2.2456 0.69542 0.92723 0.68093 1.3184 1.9993 0.75337-1.3474 1.7241-2.0138 0.98518-0.68094 2.1732-0.68094 1.811 0 2.8541 1.2315t1.0431 3.9407v10.562h-2.1297v-9.6924q0-1.6516-0.24629-2.3326-0.23181-0.69542-0.76786-1.0721-0.53606-0.37669-1.2025-0.37669-1.3764 0-2.2456 1.1011-0.86928 1.0866-0.86928 3.4336v8.9391h-2.1442v-9.9967q0-1.9124-0.594-2.6948-0.57952-0.78235-1.6082-0.78235-1.4633 0-2.3181 1.188-0.8403 1.1735-0.8403 4.3029v7.9829h-2.1297z"/>
				<path id="path3444" d="m157.12 26.891q0-3.9842 1.6661-6.0125 1.6806-2.0283 4.245-2.0283 2.5209 0 4.216 2.0283t1.6951 5.8531q0 4.1436-1.6661 6.1719t-4.245 2.0283q-2.5354 0-4.2305-2.0283-1.6806-2.0428-1.6806-6.0125zm2.1877 0q0 2.9845 1.0866 4.4478 1.0866 1.4488 2.6948 1.4488 1.5068 0 2.5789-1.4633 1.0866-1.4778 1.0866-4.4333 0-2.97-1.0866-4.4188-1.0866-1.4633-2.6948-1.4633-1.5212 0-2.5934 1.4633-1.0721 1.4633-1.0721 4.4188z"/>
				<path id="path3446" d="m172.08 35.86 2.0863 0.37669q0.14488 1.2315 0.86927 1.8255 0.7244 0.60849 2.0138 0.60849 1.4053 0 2.2312-0.68093 0.8403-0.66645 1.1446-1.9993 0.18834-0.81133 0.18834-3.4192-0.69542 0.99967-1.5647 1.5067-0.86928 0.50708-1.9269 0.50708-2.2601 0-3.7524-1.9124-1.7096-2.2022-1.7096-5.8966 0-2.4774 0.75337-4.3319 0.75338-1.8545 1.9704-2.7237 1.2315-0.86928 2.7527-0.86928 1.1156 0 2.0283 0.55054 0.92723 0.55054 1.6371 1.6516v-1.8545h1.9704v13.3q0 3.5496-0.57952 5.0563-0.57952 1.5212-1.8979 2.3905-1.3184 0.88377-3.1729 0.88377-2.4485 0-3.7669-1.3184t-1.2749-3.651zm1.782-9.2433q0 3.028 0.99967 4.4188t2.4485 1.3908 2.463-1.3619 1.0142-4.3319q0-2.8976-1.0431-4.3029-1.0431-1.4198-2.5354-1.4198-1.3329 0-2.347 1.4198-0.99967 1.4053-0.99967 4.187z"/>
				<path id="path3448" d="m187.05 34.585v-15.386h1.9269v2.3326q0.73888-1.6227 1.3474-2.1442 0.62298-0.53606 1.3908-0.53606 1.0721 0 2.1877 0.8403l-0.7244 2.4195q-0.79684-0.56503-1.5502-0.56503-0.68093 0-1.246 0.4781-0.56503 0.4781-0.79684 1.3329-0.40566 1.4923-0.40566 3.1729v8.0553h-2.1297z"/>
				<path id="path3450" d="m204.4 32.687q-1.0721 1.1156-2.2312 1.6806-1.159 0.56503-2.405 0.56503-1.9704 0-3.1439-1.188t-1.1735-3.2018q0-1.3329 0.55054-2.3615 0.55055-1.0286 1.5068-1.6082 0.95621-0.57952 2.8976-0.85479 2.6078-0.37669 3.8248-0.89825l0.0145-0.66645q0-1.5792-0.56503-2.2167-0.79684-0.92723-2.4485-0.92723-1.4923 0-2.2312 0.62298-0.73888 0.6085-1.0866 2.3036l-2.1008-0.34771q0.44913-2.4774 1.811-3.6075 1.3764-1.1301 3.9262-1.1301 1.9848 0 3.1149 0.75338 1.1301 0.73889 1.4198 1.84 0.30425 1.1011 0.30425 3.2163v3.4771q0 3.651 0.13039 4.6072 0.14488 0.94172 0.55054 1.84h-2.2312q-0.33322-0.79684-0.43463-1.8979zm-0.17386-5.8242q-1.1735 0.57952-3.4916 0.98518-1.3474 0.23181-1.8834 0.53606-0.53605 0.28976-0.8403 0.8403-0.28976 0.53605-0.28976 1.246 0 1.1011 0.68094 1.7675 0.68093 0.65196 1.8834 0.65196 1.1446 0 2.0718-0.59401 0.94172-0.59401 1.4053-1.5792 0.46361-0.99967 0.46361-2.8976v-0.95621z"/>
				<path id="path3452" d="m211.35 34.585v-13.358h-1.8979v-2.0283h1.8979v-1.6371q0-1.811 0.37669-2.7092 0.37668-0.91274 1.1446-1.3908 0.78235-0.4781 1.9559-0.4781 0.91274 0 1.9993 0.26078l-0.31873 2.2746q-0.66645-0.14488-1.2605-0.14488-0.9562 0-1.3764 0.50708-0.40567 0.49259-0.40567 1.8979v1.4198h2.463v2.0283h-2.463v13.358h-2.1152z"/>
				<path id="path3454" d="m218.52 16.344v-2.999h2.1297v2.999h-2.1297zm0 18.24v-15.386h2.1297v15.386h-2.1297z"/>
				<path id="path3456" d="m233.55 29.63 2.2022 0.33322q-0.55055 2.463-1.9993 3.7234-1.4343 1.246-3.564 1.246-2.6803 0-4.3464-2.0283-1.6516-2.0428-1.6516-5.8821 0-3.9842 1.6661-6.0705 1.6806-2.1008 4.245-2.1008 2.4485 0 4.0856 2.0573t1.6371 5.9546l-0.0145 0.69542h-9.4172q0.13039 2.5933 1.2025 3.9118 1.0721 1.3184 2.6078 1.3184 2.405 0 3.3467-3.1584zm-7.0267-4.216h7.0412q-0.14488-1.9993-0.85479-2.9845-1.0286-1.4343-2.6223-1.4343-1.4343 0-2.4485 1.2025-1.0142 1.188-1.1156 3.2163z"/>
			</g>
			<g id="text4236" transform="scale(.96586 1.0353)">
				<path id="path3459" d="m80.277 119.71v-18.796h2.0386v16.578h7.5903v2.2181h-9.6289z"/>
				<path id="path3461" d="m100.77 115.32 1.9489 0.29489q-0.48722 2.1797-1.7694 3.2951-1.2693 1.1026-3.1541 1.1026-2.372 0-3.8465-1.795-1.4617-1.8078-1.4617-5.2055 0-3.5259 1.4745-5.3722 1.4873-1.8591 3.7567-1.8591 2.1668 0 3.6157 1.8206 1.4488 1.8206 1.4488 5.2696l-0.0128 0.61543h-8.334q0.11539 2.295 1.0642 3.4618 0.94879 1.1668 2.3079 1.1668 2.1284 0 2.9618-2.7951zm-6.2184-3.7311h6.2312q-0.12821-1.7694-0.75647-2.6412-0.91032-1.2693-2.3207-1.2693-1.2693 0-2.1668 1.0642-0.89751 1.0514-0.98726 2.8464z"/>
				<path id="path3463" d="m113.45 114.72 1.8591 0.2949q-0.32054 2.4361-1.6155 3.7182-1.2822 1.2822-3.09 1.2822-2.1925 0-3.6157-1.795-1.4104-1.8078-1.4104-5.3337 0-3.5516 1.4232-5.3209 1.436-1.7822 3.6798-1.7822 1.7309 0 2.9105 1.077 1.1924 1.077 1.5258 3.231l-1.8335 0.34618q-0.26925-1.3847-0.93597-2.0643-0.66672-0.69236-1.6027-0.69236-1.3975 0-2.3207 1.2437-0.91033 1.2309-0.91033 3.9234 0 2.7823 0.87186 4.026 0.88469 1.2437 2.2566 1.2437 1.077 0 1.8335-0.82057 0.76929-0.8334 0.97444-2.5771z"/>
				<path id="path3465" d="m117.95 119.71v-18.796h1.8848v10.719l4.4875-5.5389h2.4489l-4.2696 5.0517 4.6927 8.5648h-2.3207l-3.7054-6.9621-1.3334 1.5642v5.3978h-1.8848z"/>
				<path id="path3467" d="m136.95 118.03q-0.94879 0.98726-1.9745 1.4873t-2.1284 0.50004q-1.7437 0-2.7823-1.0514-1.0385-1.0514-1.0385-2.8336 0-1.1796 0.48722-2.0899 0.48722-0.91032 1.3334-1.4232 0.84621-0.51286 2.5643-0.75647 2.3079-0.33336 3.3849-0.79493l0.0128-0.58979q0-1.3976-0.50003-1.9617-0.70519-0.82058-2.1668-0.82058-1.3206 0-1.9745 0.55133-0.6539 0.5385-0.96161 2.0386l-1.8591-0.30771q0.39747-2.1925 1.6027-3.1926 1.218-1.0001 3.4746-1.0001 1.7566 0 2.7566 0.66672 1.0001 0.65389 1.2565 1.6283 0.26926 0.97443 0.26926 2.8464v3.0772q0 3.231 0.11539 4.0772 0.12821 0.8334 0.48722 1.6283h-1.9745q-0.2949-0.70518-0.38465-1.6796zm-0.15386-5.1542q-1.0385 0.51286-3.09 0.87186-1.1924 0.20514-1.6668 0.4744-0.47439 0.25643-0.74364 0.74364-0.25643 0.4744-0.25643 1.1026 0 0.97444 0.60261 1.5642 0.60261 0.57696 1.6668 0.57696 1.0129 0 1.8335-0.52568 0.8334-0.52568 1.2437-1.3975 0.41029-0.88469 0.41029-2.5643v-0.84622z"/>
				<path id="path3469" d="m142.31 120.83 1.8463 0.33336q0.12821 1.0898 0.76929 1.6155 0.64107 0.5385 1.7822 0.5385 1.2437 0 1.9745-0.60261 0.74365-0.58979 1.0129-1.7694 0.16668-0.71801 0.16668-3.0259-0.61544 0.88468-1.3847 1.3334-0.76929 0.44875-1.7053 0.44875-2.0002 0-3.3208-1.6924-1.5129-1.9489-1.5129-5.2184 0-2.1925 0.66672-3.8336 0.66671-1.6412 1.7437-2.4104 1.0898-0.76929 2.4361-0.76929 0.98725 0 1.795 0.48721 0.82057 0.48722 1.4488 1.4617v-1.6412h1.7437v11.77q0 3.1413-0.51286 4.4747-0.51286 1.3463-1.6796 2.1156-1.1668 0.78211-2.8079 0.78211-2.1668 0-3.3336-1.1668t-1.1283-3.231zm1.577-8.1801q0 2.6797 0.88468 3.9106t2.1668 1.2309q1.2822 0 2.1797-1.2052t0.8975-3.8336q0-2.5643-0.92314-3.808-0.92315-1.2565-2.2438-1.2565-1.1796 0-2.0771 1.2565-0.88468 1.2437-0.88468 3.7054z"/>
				<path id="path3471" d="m163.31 115.32 1.9489 0.29489q-0.48722 2.1797-1.7694 3.2951-1.2693 1.1026-3.1541 1.1026-2.372 0-3.8464-1.795-1.4616-1.8078-1.4616-5.2055 0-3.5259 1.4745-5.3722 1.4873-1.8591 3.7567-1.8591 2.1668 0 3.6157 1.8206 1.4488 1.8206 1.4488 5.2696l-0.0128 0.61543h-8.334q0.11539 2.295 1.0642 3.4618 0.9488 1.1668 2.3079 1.1668 2.1284 0 2.9618-2.7951zm-6.2184-3.7311h6.2312q-0.12821-1.7694-0.75646-2.6412-0.91033-1.2693-2.3207-1.2693-1.2693 0-2.1668 1.0642-0.89751 1.0514-0.98726 2.8464z"/>
				<path id="path3473" d="m167.96 112.9q0-3.5259 1.4745-5.3209 1.4873-1.795 3.7567-1.795 2.2309 0 3.7311 1.795 1.5001 1.795 1.5001 5.1799 0 3.667-1.4745 5.462t-3.7567 1.795q-2.2438 0-3.7439-1.795-1.4873-1.8078-1.4873-5.3209zm1.936 0q0 2.6412 0.96161 3.9362 0.96162 1.2822 2.3848 1.2822 1.3334 0 2.2822-1.295 0.96161-1.3078 0.96161-3.9234 0-2.6284-0.96161-3.9106-0.96161-1.295-2.3848-1.295-1.3463 0-2.295 1.295-0.94879 1.295-0.94879 3.9106z"/>
				<path id="path3475" d="m181.67 119.71v-13.616h1.7053v2.0643q0.6539-1.436 1.1924-1.8976 0.55133-0.47439 1.2309-0.47439 0.9488 0 1.936 0.74364l-0.64107 2.1412q-0.70519-0.50004-1.3719-0.50004-0.60261 0-1.1026 0.42311-0.50004 0.42311-0.70519 1.1796-0.359 1.3206-0.359 2.8079v7.1288h-1.8848z"/>
				<path id="path3477" d="m194.07 117.64 0.25643 2.0386q-0.78211 0.20514-1.4104 0.20514-0.98726 0-1.5899-0.38464-0.60261-0.39747-0.8334-1.077-0.21796-0.67954-0.21796-2.7053v-7.8339h-1.3847v-1.795h1.3847v-3.372l1.8848-1.3847v4.7568h1.9104v1.795h-1.9104v7.9622q0 1.1026 0.16668 1.4232 0.24361 0.46158 0.91032 0.46158 0.32054 0 0.8334-0.0898z"/>
				<path id="path3479" d="m204.17 119.71v-2.0002q-0.6539 1.1539-1.5386 1.7309-0.88468 0.57697-2.0002 0.57697-1.3206 0-2.2566-0.70519-0.93597-0.718-1.2565-1.8078-0.30771-1.0898-0.30771-2.9746v-8.4366h1.8848v7.5519q0 2.1027 0.20514 2.8207 0.21797 0.70518 0.78211 1.1411 0.57697 0.42311 1.3078 0.42311 1.3591 0 2.2309-1.1155 0.74365-0.96161 0.74365-3.5259v-7.2954h1.8976v13.616h-1.6924z"/>
				<path id="path3481" d="m209.85 119.71v-13.616h1.7053v1.936q0.61544-1.1283 1.5001-1.6796 0.8975-0.56414 2.0514-0.56414 0.8975 0 1.654 0.359 0.76929 0.34618 1.2309 0.92315 0.47439 0.56414 0.70518 1.4745 0.23079 0.91033 0.23079 2.7951v8.3724h-1.8976v-8.2827q0-1.5001-0.25643-2.1925-0.25643-0.69236-0.80775-1.0642-0.5385-0.38465-1.2565-0.38465-1.3591 0-2.1668 1.0129-0.80776 1.0129-0.80776 3.4746v7.4365h-1.8848z"/>
				<path id="path3483" d="m222.49 120.83 1.8463 0.33336q0.12822 1.0898 0.76929 1.6155 0.64108 0.5385 1.7822 0.5385 1.2437 0 1.9745-0.60261 0.74365-0.58979 1.0129-1.7694 0.16668-0.71801 0.16668-3.0259-0.61543 0.88468-1.3847 1.3334-0.76929 0.44875-1.7053 0.44875-2.0002 0-3.3208-1.6924-1.5129-1.9489-1.5129-5.2184 0-2.1925 0.66672-3.8336 0.66672-1.6412 1.7437-2.4104 1.0898-0.76929 2.4361-0.76929 0.98726 0 1.795 0.48721 0.82058 0.48722 1.4488 1.4617v-1.6412h1.7437v11.77q0 3.1413-0.51286 4.4747-0.51286 1.3463-1.6796 2.1156-1.1668 0.78211-2.8079 0.78211-2.1668 0-3.3336-1.1668t-1.1283-3.231zm1.577-8.1801q0 2.6797 0.88469 3.9106 0.88468 1.2309 2.1668 1.2309 1.2822 0 2.1796-1.2052 0.89751-1.2052 0.89751-3.8336 0-2.5643-0.92315-3.808-0.92315-1.2565-2.2438-1.2565-1.1796 0-2.0771 1.2565-0.88469 1.2437-0.88469 3.7054z"/>
			</g>
			<path id="path3411" d="m89.299 75.505v-5.6048l10.001-0.03259v17.727q-2.303 3.7148-4.7509 5.6048-2.4479 1.8574-5.0247 1.8574-3.4787 0-6.3292-2.9979-2.8345-3.0305-4.2839-8.7331t-1.4494-12.741q0-6.9735 1.4333-13.002 1.4494-6.061 4.1551-8.9938 2.7056-2.9328 6.2326-2.9328 2.5607 0 4.6221 1.6945 2.0775 1.6619 3.2532 4.6598t1.7876 7.8207l-2.8184 1.5641q-0.53146-3.6497-1.3206-5.7352t-2.2547-3.3238q-1.4655-1.2709-3.2532-1.2709-2.1419 0-3.7041 1.336-1.5622 1.3034-2.5285 3.4541-0.95019 2.1507-1.4816 4.725-0.90187 4.4317-0.90187 9.6129 0 6.3869 1.079 10.688 1.0951 4.3014 3.1727 6.3869 2.0775 2.0855 4.4127 2.0855 2.0292 0 3.9618-1.5641 1.9326-1.5967 2.9311-3.389v-8.8961h-6.9412z"/>
			<path id="path3413" d="m103.95 94.242v-47.771h17.071v5.6374h-13.947v14.631h13.061v5.6048h-13.061v16.261h14.494v5.6374h-17.619z"/>
			<path id="path3415" d="m125.82 94.242v-47.771h4.7026l5.5884 33.825q0.77303 4.725 1.1273 7.0712 0.40263-2.6069 1.2562-7.6578l5.6528-33.238h4.2034v47.771h-3.0116v-39.983l-6.8607 39.983h-2.8184l-6.8285-40.668v40.668h-3.0116z"/>
			<path id="path3417" d="m153.33 94.242v-47.771h4.7026l5.5884 33.825q0.77303 4.725 1.1273 7.0712 0.40263-2.6069 1.2562-7.6578l5.6528-33.238h4.2034v47.771h-3.0116v-39.983l-6.8607 39.983h-2.8184l-6.8285-40.668v40.668h-3.0116z"/>
			<path id="path3419" d="m181 94.242v-47.771h17.071v5.6374h-13.947v14.631h13.061v5.6048h-13.061v16.261h14.494v5.6374h-17.619z"/>
			<path id="path3421" d="m203.02 94.242v-47.771h10.468q3.1566 0 4.7992 1.3034 1.6427 1.2709 2.6251 4.5295t0.9824 7.2016q0 5.0835-1.6266 8.5702t-5.0247 4.4317q1.2401 1.2057 1.8843 2.3788 1.3689 2.5417 2.5929 6.3543l4.1067 13.002h-3.9296l-3.1244-9.9388q-1.3689-4.3014-2.2547-6.5824-0.88576-2.281-1.5944-3.1935-0.69252-0.91241-1.4172-1.2709-0.53146-0.22809-1.7393-0.22809h-3.6236v21.214h-3.1243zm3.1243-26.688h6.7157q2.1419 0 3.3498-0.87983 1.2079-0.91241 1.836-2.8676 0.62809-1.9878 0.62809-4.3014 0-3.389-1.224-5.5723-1.2079-2.1833-3.833-2.1833h-7.4727v15.804z"/>
		</g>
		<flowRoot id="flowRoot3372" style="word-spacing:0px;letter-spacing:0px" xml:space="preserve" font-size="27.5px" transform="translate(-10.253 -15.556)" line-height="125%" font-family="Calibri" fill="#000000"><flowRegion id="flowRegion3374"><rect id="rect3376" y="60.322" x="151.25" width="16.5" height="32"/></flowRegion><flowPara id="flowPara3378"/></flowRoot>
	</g>
</svg>
